<svg xmlns="http://www.w3.org/2000/svg" xmlns:xlink="http://www.w3.org/1999/xlink" width="189" zoomAndPan="magnify" viewBox="0 0 141.75 30.000001" height="40" preserveAspectRatio="xMidYMid meet" version="1.0"><defs><g/></defs><g fill="#545454" fill-opacity="1"><g transform="translate(16.348718, 20.479294)"><g><path d="M 8.484375 -14.625 L 14.390625 0 L 10.8125 0 L 9.734375 -2.921875 L 4.15625 -2.921875 L 3.078125 0 L -0.5 0 L 5.40625 -14.625 Z M 8.59375 -5.84375 L 6.96875 -10.09375 L 6.921875 -10.09375 L 5.296875 -5.84375 Z M 8.59375 -5.84375 "/></g></g></g><g fill="#545454" fill-opacity="1"><g transform="translate(29.243425, 20.479294)"><g><path d="M 1.359375 -14.15625 C 1.722656 -14.519531 2.160156 -14.703125 2.671875 -14.703125 C 3.179688 -14.703125 3.617188 -14.519531 3.984375 -14.15625 C 4.347656 -13.789062 4.53125 -13.351562 4.53125 -12.84375 C 4.53125 -12.332031 4.347656 -11.894531 3.984375 -11.53125 C 3.617188 -11.164062 3.179688 -10.984375 2.671875 -10.984375 C 2.160156 -10.984375 1.722656 -11.164062 1.359375 -11.53125 C 0.992188 -11.894531 0.8125 -12.332031 0.8125 -12.84375 C 0.8125 -13.351562 0.992188 -13.789062 1.359375 -14.15625 Z M 1.0625 -9.09375 L 1.0625 0 L 4.203125 0 L 4.203125 -9.09375 Z M 1.0625 -9.09375 "/></g></g></g><g fill="#545454" fill-opacity="1"><g transform="translate(33.600644, 20.479294)"><g><path d="M 1.0625 0 L 1.0625 -15.234375 L 4.203125 -15.234375 L 4.203125 0 Z M 1.0625 0 "/></g></g></g><g fill="#545454" fill-opacity="1"><g transform="translate(37.8693, 20.479294)"><g><path d="M 4.3125 -11.765625 L 7.90625 -14.890625 L 9.515625 -12.84375 L 5.296875 -10.40625 Z M 10.265625 -4.109375 L 3.671875 -4.109375 C 3.671875 -3.472656 3.875 -3 4.28125 -2.6875 C 4.695312 -2.382812 5.148438 -2.234375 5.640625 -2.234375 C 6.140625 -2.234375 6.535156 -2.300781 6.828125 -2.4375 C 7.128906 -2.570312 7.46875 -2.84375 7.84375 -3.25 L 10.125 -2.109375 C 9.175781 -0.523438 7.601562 0.265625 5.40625 0.265625 C 4.03125 0.265625 2.851562 -0.203125 1.875 -1.140625 C 0.894531 -2.078125 0.40625 -3.207031 0.40625 -4.53125 C 0.40625 -5.851562 0.894531 -6.988281 1.875 -7.9375 C 2.851562 -8.882812 4.03125 -9.359375 5.40625 -9.359375 C 6.84375 -9.359375 8.015625 -8.941406 8.921875 -8.109375 C 9.828125 -7.273438 10.28125 -6.082031 10.28125 -4.53125 C 10.28125 -4.320312 10.273438 -4.179688 10.265625 -4.109375 Z M 3.75 -5.84375 L 7.21875 -5.84375 C 7.144531 -6.320312 6.957031 -6.6875 6.65625 -6.9375 C 6.351562 -7.1875 5.96875 -7.3125 5.5 -7.3125 C 4.976562 -7.3125 4.5625 -7.175781 4.25 -6.90625 C 3.945312 -6.632812 3.78125 -6.28125 3.75 -5.84375 Z M 3.75 -5.84375 "/></g></g></g><g fill="#545454" fill-opacity="1"><g transform="translate(47.558021, 20.479294)"><g><path d="M 1.0625 0 L 1.0625 -9.09375 L 4.203125 -9.09375 L 4.203125 -8.140625 L 4.234375 -8.140625 C 5.046875 -8.953125 5.914062 -9.359375 6.84375 -9.359375 C 7.289062 -9.359375 7.734375 -9.296875 8.171875 -9.171875 C 8.617188 -9.054688 9.046875 -8.875 9.453125 -8.625 C 9.859375 -8.375 10.1875 -8.019531 10.4375 -7.5625 C 10.695312 -7.113281 10.828125 -6.585938 10.828125 -5.984375 L 10.828125 0 L 7.6875 0 L 7.6875 -5.140625 C 7.6875 -5.609375 7.535156 -6.019531 7.234375 -6.375 C 6.929688 -6.726562 6.539062 -6.90625 6.0625 -6.90625 C 5.582031 -6.90625 5.148438 -6.722656 4.765625 -6.359375 C 4.390625 -5.992188 4.203125 -5.585938 4.203125 -5.140625 L 4.203125 0 Z M 1.0625 0 "/></g></g></g><g fill="#545454" fill-opacity="1"><g transform="translate(58.273091, 20.479294)"><g/></g></g><g fill="#545454" fill-opacity="1"><g transform="translate(62.116646, 20.479294)"><g/></g></g><g fill="#545454" fill-opacity="1"><g transform="translate(65.957911, 20.479294)"><g><path d="M 6.453125 -14.890625 C 7.242188 -14.890625 8.015625 -14.769531 8.765625 -14.53125 C 9.523438 -14.300781 10.085938 -14.078125 10.453125 -13.859375 L 10.984375 -13.5 L 9.640625 -10.84375 C 9.535156 -10.914062 9.382812 -11.003906 9.1875 -11.109375 C 9 -11.222656 8.644531 -11.375 8.125 -11.5625 C 7.613281 -11.757812 7.132812 -11.859375 6.6875 -11.859375 C 6.125 -11.859375 5.691406 -11.738281 5.390625 -11.5 C 5.085938 -11.257812 4.9375 -10.941406 4.9375 -10.546875 C 4.9375 -10.335938 5.007812 -10.148438 5.15625 -9.984375 C 5.300781 -9.816406 5.539062 -9.632812 5.875 -9.4375 C 6.21875 -9.238281 6.519531 -9.078125 6.78125 -8.953125 C 7.039062 -8.835938 7.441406 -8.664062 7.984375 -8.4375 C 8.929688 -8.03125 9.738281 -7.484375 10.40625 -6.796875 C 11.070312 -6.109375 11.40625 -5.328125 11.40625 -4.453125 C 11.40625 -3.609375 11.253906 -2.875 10.953125 -2.25 C 10.648438 -1.625 10.238281 -1.132812 9.71875 -0.78125 C 9.195312 -0.425781 8.613281 -0.164062 7.96875 0 C 7.332031 0.175781 6.644531 0.265625 5.90625 0.265625 C 5.257812 0.265625 4.628906 0.195312 4.015625 0.0625 C 3.398438 -0.0625 2.882812 -0.21875 2.46875 -0.40625 C 2.0625 -0.601562 1.691406 -0.796875 1.359375 -0.984375 C 1.035156 -1.179688 0.796875 -1.34375 0.640625 -1.46875 L 0.40625 -1.671875 L 2.078125 -4.46875 C 2.210938 -4.34375 2.40625 -4.1875 2.65625 -4 C 2.90625 -3.820312 3.34375 -3.578125 3.96875 -3.265625 C 4.601562 -2.960938 5.164062 -2.8125 5.65625 -2.8125 C 7.0625 -2.8125 7.765625 -3.289062 7.765625 -4.25 C 7.765625 -4.445312 7.710938 -4.628906 7.609375 -4.796875 C 7.503906 -4.972656 7.328125 -5.144531 7.078125 -5.3125 C 6.828125 -5.488281 6.601562 -5.625 6.40625 -5.71875 C 6.207031 -5.820312 5.882812 -5.976562 5.4375 -6.1875 C 5 -6.394531 4.675781 -6.550781 4.46875 -6.65625 C 3.582031 -7.09375 2.894531 -7.640625 2.40625 -8.296875 C 1.925781 -8.953125 1.6875 -9.660156 1.6875 -10.421875 C 1.6875 -11.734375 2.171875 -12.804688 3.140625 -13.640625 C 4.109375 -14.472656 5.210938 -14.890625 6.453125 -14.890625 Z M 6.453125 -14.890625 "/></g></g></g><g fill="#545454" fill-opacity="1"><g transform="translate(76.868804, 20.479294)"><g><path d="M 1.0625 0 L 1.0625 -15.234375 L 4.203125 -15.234375 L 4.203125 -8.140625 L 4.234375 -8.140625 C 5.046875 -8.953125 5.914062 -9.359375 6.84375 -9.359375 C 7.289062 -9.359375 7.734375 -9.296875 8.171875 -9.171875 C 8.617188 -9.054688 9.046875 -8.875 9.453125 -8.625 C 9.859375 -8.375 10.1875 -8.019531 10.4375 -7.5625 C 10.695312 -7.113281 10.828125 -6.585938 10.828125 -5.984375 L 10.828125 0 L 7.6875 0 L 7.6875 -5.140625 C 7.6875 -5.609375 7.535156 -6.019531 7.234375 -6.375 C 6.929688 -6.726562 6.539062 -6.90625 6.0625 -6.90625 C 5.582031 -6.90625 5.148438 -6.722656 4.765625 -6.359375 C 4.390625 -5.992188 4.203125 -5.585938 4.203125 -5.140625 L 4.203125 0 Z M 1.0625 0 "/></g></g></g><g fill="#545454" fill-opacity="1"><g transform="translate(87.584857, 20.479294)"><g><path d="M 10.265625 -4.109375 L 3.671875 -4.109375 C 3.671875 -3.472656 3.875 -3 4.28125 -2.6875 C 4.695312 -2.382812 5.148438 -2.234375 5.640625 -2.234375 C 6.140625 -2.234375 6.535156 -2.300781 6.828125 -2.4375 C 7.128906 -2.570312 7.46875 -2.84375 7.84375 -3.25 L 10.125 -2.109375 C 9.175781 -0.523438 7.601562 0.265625 5.40625 0.265625 C 4.03125 0.265625 2.851562 -0.203125 1.875 -1.140625 C 0.894531 -2.078125 0.40625 -3.207031 0.40625 -4.53125 C 0.40625 -5.851562 0.894531 -6.988281 1.875 -7.9375 C 2.851562 -8.882812 4.03125 -9.359375 5.40625 -9.359375 C 6.84375 -9.359375 8.015625 -8.941406 8.921875 -8.109375 C 9.828125 -7.273438 10.28125 -6.082031 10.28125 -4.53125 C 10.28125 -4.320312 10.273438 -4.179688 10.265625 -4.109375 Z M 3.75 -5.84375 L 7.21875 -5.84375 C 7.144531 -6.320312 6.957031 -6.6875 6.65625 -6.9375 C 6.351562 -7.1875 5.96875 -7.3125 5.5 -7.3125 C 4.976562 -7.3125 4.5625 -7.175781 4.25 -6.90625 C 3.945312 -6.632812 3.78125 -6.28125 3.75 -5.84375 Z M 3.75 -5.84375 "/></g></g></g><g fill="#545454" fill-opacity="1"><g transform="translate(97.273577, 20.479294)"><g><path d="M 1.0625 0 L 1.0625 -9.09375 L 4.203125 -9.09375 L 4.203125 -7.78125 L 4.234375 -7.78125 C 4.253906 -7.820312 4.289062 -7.878906 4.34375 -7.953125 C 4.40625 -8.023438 4.523438 -8.148438 4.703125 -8.328125 C 4.878906 -8.503906 5.066406 -8.660156 5.265625 -8.796875 C 5.460938 -8.941406 5.71875 -9.070312 6.03125 -9.1875 C 6.351562 -9.300781 6.679688 -9.359375 7.015625 -9.359375 C 7.359375 -9.359375 7.691406 -9.3125 8.015625 -9.21875 C 8.347656 -9.125 8.59375 -9.03125 8.75 -8.9375 L 9 -8.78125 L 7.6875 -6.125 C 7.300781 -6.457031 6.757812 -6.625 6.0625 -6.625 C 5.6875 -6.625 5.359375 -6.539062 5.078125 -6.375 C 4.804688 -6.207031 4.613281 -6.003906 4.5 -5.765625 C 4.394531 -5.535156 4.316406 -5.335938 4.265625 -5.171875 C 4.222656 -5.003906 4.203125 -4.875 4.203125 -4.78125 L 4.203125 0 Z M 1.0625 0 "/></g></g></g><g fill="#545454" fill-opacity="1"><g transform="translate(105.102475, 20.479294)"><g><path d="M 10.40625 -7.953125 C 11.257812 -7.023438 11.6875 -5.882812 11.6875 -4.53125 C 11.6875 -3.1875 11.257812 -2.050781 10.40625 -1.125 C 9.5625 -0.195312 8.484375 0.265625 7.171875 0.265625 C 5.972656 0.265625 4.984375 -0.164062 4.203125 -1.03125 L 4.15625 -1.03125 L 4.15625 0 L 1.0625 0 L 1.0625 -15.234375 L 4.203125 -15.234375 L 4.203125 -8.21875 C 4.984375 -8.976562 5.972656 -9.359375 7.171875 -9.359375 C 8.484375 -9.359375 9.5625 -8.890625 10.40625 -7.953125 Z M 7.765625 -3 C 8.160156 -3.394531 8.359375 -3.90625 8.359375 -4.53125 C 8.359375 -5.15625 8.15625 -5.671875 7.75 -6.078125 C 7.34375 -6.484375 6.835938 -6.6875 6.234375 -6.6875 C 5.640625 -6.6875 5.140625 -6.484375 4.734375 -6.078125 C 4.328125 -5.671875 4.125 -5.15625 4.125 -4.53125 C 4.125 -3.914062 4.320312 -3.40625 4.71875 -3 C 5.113281 -2.601562 5.617188 -2.40625 6.234375 -2.40625 C 6.867188 -2.40625 7.378906 -2.601562 7.765625 -3 Z M 7.765625 -3 "/></g></g></g><g fill="#545454" fill-opacity="1"><g transform="translate(116.208205, 20.479294)"><g><path d="M 1.359375 -14.15625 C 1.722656 -14.519531 2.160156 -14.703125 2.671875 -14.703125 C 3.179688 -14.703125 3.617188 -14.519531 3.984375 -14.15625 C 4.347656 -13.789062 4.53125 -13.351562 4.53125 -12.84375 C 4.53125 -12.332031 4.347656 -11.894531 3.984375 -11.53125 C 3.617188 -11.164062 3.179688 -10.984375 2.671875 -10.984375 C 2.160156 -10.984375 1.722656 -11.164062 1.359375 -11.53125 C 0.992188 -11.894531 0.8125 -12.332031 0.8125 -12.84375 C 0.8125 -13.351562 0.992188 -13.789062 1.359375 -14.15625 Z M 1.0625 -9.09375 L 1.0625 0 L 4.203125 0 L 4.203125 -9.09375 Z M 1.0625 -9.09375 "/></g></g></g><g fill="#545454" fill-opacity="1"><g transform="translate(120.565236, 20.479294)"><g/></g></g></svg>